<?xml version="1.0" encoding="UTF-8"?>
<svg id="Layer_1" xmlns="http://www.w3.org/2000/svg" version="1.1" viewBox="0 0 24 24">
  <!-- Generator: Adobe Illustrator 30.6.0, SVG Export Plug-In . SVG Version: 2.1.4 Build 109)  -->
  <defs>
    <style>
      .st0 {
        fill: #3ba8df;
      }

      .st1 {
        fill: #ec7308;
      }

      .st2 {
        stroke-width: 3.23px;
      }

      .st2, .st3 {
        stroke: #ec7308;
      }

      .st2, .st3, .st4 {
        fill: none;
        stroke-miterlimit: 10;
      }

      .st3 {
        stroke-width: 1.08px;
      }

      .st4 {
        stroke: #ec750c;
        stroke-width: 2.69px;
      }
    </style>
  </defs>
  <g>
    <path class="st4" d="M17.07,16.94c-2.73,2.73-7.15,2.73-9.88,0-2.73-2.73-2.73-7.15,0-9.88,2.73-2.73,7.15-2.73,9.88,0,2.73,2.73,2.73,7.15,0,9.88Z"/>
    <g>
      <path class="st0" d="M16.42,10.35c-.19.04-.29.27-.26.54l-.6.11c-.67.13-1.06-.73-.52-1.15l.24-.19c.09.09.21.12.29.07.11-.07.12-.25.02-.4-.1-.16-.26-.23-.37-.16-.09.05-.11.18-.07.32l-.26.17c-.57.37-1.25-.27-.92-.86l.3-.53c.24.11.49.08.59-.08.11-.18,0-.46-.27-.62s-.56-.15-.67.04c-.1.16-.02.4.19.57l-.34.5c-.38.56-1.26.23-1.18-.44l.04-.31c.14-.02.24-.1.25-.2,0-.13-.13-.24-.31-.26-.18-.01-.34.08-.35.2,0,.1.07.19.19.23l-.06.29c-.14.66-1.08.7-1.26.04l-.17-.59c.25-.09.4-.29.36-.48-.05-.21-.33-.32-.63-.25-.3.07-.5.3-.45.5.04.19.27.29.54.26l.11.6c.13.67-.73,1.06-1.15.52l-.19-.24c.09-.09.12-.21.07-.29-.07-.11-.25-.12-.4-.03-.16.09-.23.26-.16.37.05.09.18.11.32.07l.17.26c.37.57-.27,1.25-.86.92l-.53-.3c.11-.24.08-.49-.08-.59-.18-.11-.46,0-.62.27-.16.26-.14.56.04.67.16.1.4.01.57-.19l.5.34c.56.38.23,1.26-.44,1.18l-.31-.04c-.02-.14-.1-.24-.2-.25-.13,0-.24.13-.26.31-.01.18.08.34.2.35.1,0,.19-.07.23-.19l.29.06c.66.14.7,1.08.04,1.26l-.59.17c-.09-.25-.29-.4-.48-.36-.21.05-.32.33-.25.63.07.3.3.5.5.45.19-.04.29-.27.26-.54l.6-.11c.67-.13,1.06.73.52,1.15l-.24.19c-.09-.09-.21-.12-.29-.07-.11.07-.12.25-.03.4.09.16.26.23.37.16.09-.05.11-.18.07-.32l.26-.17c.57-.37,1.26.27.92.86l-.3.53c-.24-.11-.49-.08-.59.08-.11.18,0,.46.27.62s.56.14.68-.04c.1-.16.01-.4-.19-.57l.35-.5c.38-.56,1.26-.23,1.18.44l-.04.31c-.14.02-.24.1-.25.2-.01.13.13.24.31.26.18.02.34-.07.35-.2,0-.1-.07-.19-.19-.23l.06-.29c.14-.66,1.08-.7,1.26-.04l.17.59c-.25.09-.4.29-.36.48.05.21.33.32.63.25.3-.07.5-.3.45-.5-.04-.19-.27-.29-.54-.26l-.11-.6c-.13-.67.73-1.06,1.15-.52l.19.24c-.09.09-.12.21-.07.29.07.11.25.12.4.02.16-.1.23-.26.16-.37-.05-.09-.18-.11-.32-.07l-.17-.26c-.37-.57.27-1.26.86-.92l.53.3c-.11.24-.08.49.08.59.18.11.46,0,.62-.27.16-.26.14-.56-.04-.68-.16-.1-.4-.01-.57.19l-.5-.34c-.56-.38-.23-1.26.44-1.18l.31.04c.02.14.1.24.2.25.13.01.24-.13.26-.31.02-.18-.07-.34-.2-.35-.1,0-.19.07-.23.19l-.29-.06c-.67-.14-.7-1.08-.04-1.26l.59-.17c.09.25.29.4.48.36.21-.05.32-.33.25-.63-.07-.3-.3-.5-.5-.45M9.73,12.44c-.12.03-.25-.05-.28-.17-.03-.12.05-.25.17-.28.12-.03.25.05.28.17.03.12-.05.25-.17.28M10.19,9.91c.28-.07.55.11.62.38.07.28-.11.55-.38.62-.28.07-.55-.11-.62-.38-.07-.28.11-.55.38-.62M13.32,14.18c-.36.09-.72-.14-.8-.5-.08-.36.14-.72.5-.8.36-.09.72.14.8.5.08.36-.14.72-.5.8M11.53,14.45c-.12.03-.25-.05-.28-.17-.03-.12.05-.25.17-.28.12-.03.25.05.28.17.03.12-.05.25-.17.28M11.34,12.05c-.18.04-.37-.07-.41-.26-.04-.19.07-.37.26-.41.19-.04.37.07.41.26.04.19-.07.37-.26.41M12.05,10.27c-.05-.21.08-.42.29-.47.21-.05.42.08.47.29.05.21-.08.42-.29.47-.21.05-.42-.08-.47-.29M14.09,12.02c-.12.03-.25-.05-.28-.17-.03-.12.05-.25.17-.28.12-.03.25.05.28.17.03.12-.05.25-.17.28"/>
      <line class="st2" x1="16.77" y1="7.06" x2="6.89" y2="16.94"/>
      <path class="st3" d="M18.77,12c0,3.83-3.11,6.94-6.94,6.94s-6.94-3.11-6.94-6.94,3.11-6.94,6.94-6.94,6.94,3.11,6.94,6.94Z"/>
    </g>
  </g>
  <path class="st1" d="M17,24H7c-3.86,0-7-3.14-7-7V7C0,3.14,3.14,0,7,0h9.99c3.86,0,7,3.14,7,7v10c0,3.86-3.14,7-7,7M7,.93C3.66.93.94,3.66.94,7v10c0,3.35,2.72,6.07,6.07,6.07h9.99c3.35,0,6.07-2.72,6.07-6.07V7c0-3.35-2.72-6.07-6.07-6.07H7Z"/>
</svg>