<?xml version="1.0" encoding="UTF-8"?>
<svg id="Layer_1" xmlns="http://www.w3.org/2000/svg" version="1.1" viewBox="0 0 24 24">
  <!-- Generator: Adobe Illustrator 30.6.0, SVG Export Plug-In . SVG Version: 2.1.4 Build 109)  -->
  <defs>
    <style>
      .st0 {
        fill: #ec7308;
      }

      .st1 {
        fill: #ef7b13;
      }

      .st2 {
        fill: #fc8823;
      }

      .st3, .st4 {
        fill: none;
      }

      .st5 {
        fill: #f07b13;
      }

      .st6 {
        fill: #39abe1;
      }

      .st7 {
        fill: #f07a14;
      }

      .st8 {
        fill: #44abe1;
      }

      .st4 {
        stroke: #fff;
        stroke-linecap: round;
        stroke-linejoin: round;
        stroke-width: .15px;
      }

      .st9 {
        fill: #fefefe;
      }
    </style>
  </defs>
  <path class="st0" d="M16.92,24H7.08c-3.9,0-7.08-3.17-7.08-7.08V7.08C0,3.18,3.17,0,7.08,0h9.84c3.9,0,7.08,3.18,7.08,7.08v9.84c0,3.9-3.18,7.08-7.08,7.08M7.08.93C3.69.93.93,3.69.93,7.08v9.84c0,3.39,2.76,6.15,6.15,6.15h9.84c3.39,0,6.15-2.76,6.15-6.15V7.08c0-3.39-2.76-6.15-6.15-6.15H7.08"/>
  <rect class="st3" x="3.79" y="2.82" width="15.54" height="14.16"/>
  <rect class="st3" x="3.83" y="2.86" width="15.46" height="14.09"/>
  <g>
    <path class="st1" d="M8.58,6.46c-1.12-.11-2.25-.03-3.34.21-.82.18-1.61.44-2.36.8-.11.05-.22.05-.32-.02-.09-.06-.14-.17-.13-.29.02-.12.09-.2.2-.25.4-.19.8-.35,1.22-.49,1.08-.38,2.27-.59,3.41-.62h.61c.74.02,1.48.12,2.21.29,1.22.29,2.38.77,3.44,1.42.09.06.14.16.14.26s-.06.2-.15.25c-.09.06-.21.06-.3,0-.23-.14-.47-.28-.72-.4-1.21-.63-2.54-1.04-3.91-1.18Z"/>
    <path class="st7" d="M7.21,9.67c-.4.05-.78.15-1.16.28-.12.04-.25.04-.34-.05-.08-.07-.11-.19-.08-.3.02-.09.1-.17.2-.21.63-.24,1.36-.37,2.04-.38,1.04-.02,2.06.2,3,.64.06.03.1.05.14.09.09.11.1.26.02.38s-.24.16-.37.09c-1.07-.51-2.26-.71-3.44-.55Z"/>
    <path class="st5" d="M6.39,12.98c-.52,0-1.34.17-1.81.36l-.34.14c-.11.04-.23,0-.31-.08s-.11-.2-.07-.31c.04-.1.12-.16.22-.2.35-.14.71-.27,1.08-.35.34-.08.68-.13,1.03-.15h.76c.66.04,1.29.19,1.9.43.06.02.1.05.14.09.1.11.1.27.01.39s-.24.15-.38.09c-.35-.15-.71-.24-1.08-.31-.27-.05-.54-.07-.82-.08h-.35Z"/>
    <g>
      <path class="st2" d="M14.57,20.79c-.19,0-.38-.08-.54-.21l-1.81-1.61c-.1-.09-.18-.16-.24-.25-.12-.17-.14-.4-.05-.61.05-.12.12-.2.19-.27l.2-.22c.22-.24.39-.6.52-1.12l.22-1.11c.1-.52.19-.97.48-1.47.1-.18.21-.35.33-.52l.45-.62.84-1.08.06-.09c.04-.05.07-.11.15-.17.04-.04.11-.05.2-.05h.02l.11.02.15.11c.21.25.18.52.15.7-.02.12-.06.25-.13.37l-.25.4-.44.65c-.07.1-.11.21-.13.32l.08.11c.15-.05.24-.12.32-.18.23-.18.44-.38.66-.58l.23-.23,2.27-2.52c.15-.17.35-.27.55-.27.12,0,.25.04.36.11.15.1.24.26.27.44.03.2-.04.4-.17.55l.16-.17.28-.29c.09-.1.22-.14.33-.16.04-.01.09-.02.14-.02.17,0,.32.06.44.18.15.15.22.36.18.57-.03.19-.14.32-.23.42l-.97,1.11.46-.5.18-.18c.12-.12.27-.2.45-.22h.02c.23,0,.39.08.51.2.22.23.21.63,0,.88l-1.12,1.3c.09-.09.18-.17.3-.24.08-.04.18-.07.27-.07.23,0,.43.14.51.35.08.22.02.48-.14.66l-1.92,2.11-.52.58-.49.54c-.25.28-.53.5-.84.7-.27.16-.54.28-.8.39l-.7.28c-.16.07-.3.15-.45.25-.24.15-.41.32-.6.5-.13.12-.29.19-.47.19Z"/>
      <path class="st9" d="M19.14,10.44c.1,0,.2.03.29.09.26.17.29.55.07.81l-.58.66-.51.56-.57.62-.78.85s-.02.12.02.15c.02.02.05.02.07.02.03,0,.06-.01.08-.04l.95-1.02,1.67-1.8.28-.29c.07-.07.17-.1.26-.12.04,0,.07-.01.11-.01.13,0,.26.05.36.14.12.12.18.29.15.46-.03.15-.11.25-.2.36l-.53.6-.9,1.03-.82.92-.46.49c-.05.05-.04.12,0,.16.02.02.04.02.07.02.03,0,.07-.02.1-.05l.24-.27,1.96-2.13.18-.18c.1-.1.23-.17.37-.18.02,0,.04,0,.05,0,.14,0,.28.07.37.17.18.19.17.51,0,.71l-.94,1.09-.78.91-.39.43-.33.36s-.03.12.01.15c.02.02.04.02.06.02.04,0,.07-.02.1-.06l.94-1.03.19-.2.15-.16c.1-.1.2-.2.32-.27.07-.04.14-.05.21-.05.17,0,.33.1.39.27.06.18.02.39-.11.54l-1.92,2.11-.52.58-.49.54c-.24.26-.51.49-.81.67-.25.15-.51.27-.78.38l-.7.28c-.18.07-.33.17-.49.27-.22.14-.41.32-.6.5-.11.11-.25.16-.39.16-.16,0-.32-.06-.45-.18l-1.81-1.61c-.08-.07-.16-.14-.22-.23-.1-.14-.11-.33-.04-.49.04-.09.1-.17.17-.24l.2-.22c.29-.31.45-.77.55-1.17l.19-.95c.12-.58.19-1.07.5-1.6.1-.18.21-.34.33-.51l.45-.62.84-1.07c.08-.1.09-.16.19-.24.02-.02.07-.02.12-.02.04,0,.07,0,.09.01l.12.1c.14.17.15.36.11.58-.02.12-.05.23-.12.33l-.25.4-.44.65c-.08.11-.13.24-.15.37-.01.08,0,.16.06.21.04.03.09.05.14.05.03,0,.06,0,.08-.02.11-.05.21-.11.31-.18.24-.18.45-.38.67-.59l.23-.24.65-.72.66-.73.97-1.08c.13-.14.29-.22.46-.22M19.14,10.19c-.23,0-.47.11-.64.31l-.97,1.08-.66.73-.65.72-.22.23c-.19.18-.41.39-.64.56-.07.05-.13.09-.18.12.02-.08.05-.14.1-.21l.44-.65.26-.41c.09-.14.13-.29.15-.41.04-.2.07-.51-.16-.78l-.02-.02-.02-.02-.12-.1-.03-.02h-.03c-.06-.04-.13-.04-.18-.04-.12,0-.21.03-.28.08-.09.08-.13.14-.17.2-.01.02-.03.05-.05.08l-.84,1.07-.46.62c-.13.17-.24.35-.34.53-.29.52-.39,1-.49,1.52l-.03.16-.19.95c-.12.48-.28.83-.49,1.05l-.2.22c-.08.09-.16.18-.22.31-.1.25-.08.52.07.73.07.1.15.18.23.25l1.84,1.63c.18.16.39.24.62.24.21,0,.41-.08.56-.22.18-.17.36-.34.56-.47.16-.1.3-.19.45-.25l.7-.28c.26-.11.55-.23.82-.4.32-.2.6-.43.86-.72l.49-.54.52-.58,1.92-2.11c.19-.21.26-.52.16-.79-.09-.26-.34-.44-.62-.44-.01,0-.03,0-.04,0l.68-.79c.26-.3.26-.76,0-1.05-.15-.16-.35-.25-.55-.25-.03,0-.06,0-.08,0,0,0,0,0,0,0h0c.11-.13.22-.28.26-.49.04-.25-.04-.51-.22-.69-.14-.14-.33-.21-.53-.21-.06,0-.11,0-.16.02-.11.02-.27.07-.39.19l-.05.05s0-.05,0-.07c-.03-.22-.14-.41-.32-.53-.13-.09-.28-.13-.43-.13h0Z"/>
    </g>
    <g>
      <path class="st8" d="M9.81,14.39s-.05.05-.04.08c0,.03.02.05.05.08l2.02,1.77c.16.14.26.31.23.52-.01.11-.05.21-.14.3-.18.18-.49.22-.69.04l-.92-.82-1.2-1.06c-.5-.44-.53-1.07-.1-1.55l1.67-1.85,2.51-2.76.79-.86.18-.19c.38-.46,1.05-.51,1.51-.11l.71.63,1.34,1.19.17.16c.17.22.13.53-.07.71-.23.19-.55.15-.74-.06l-.85-.75-1.16-1.04s-.06-.05-.1-.05c-.04,0-.06.02-.09.05l-1.17,1.28-1.05,1.15-1.86,2.04-.99,1.09Z"/>
      <path class="st8" d="M9.67,14.22c-.14.15-.16.35,0,.49l.88.77.79.7.37.32c.1.08.16.18.14.32-.01.11-.09.22-.21.26-.11.03-.22,0-.3-.07l-.97-.87-1.2-1.07c-.13-.16-.22-.33-.23-.54,0-.2.06-.4.2-.55l.52-.57,1.7-1.87,1.62-1.78.84-.92.53-.59c.31-.34.83-.4,1.18-.09l1.94,1.72.26.24c.12.14.06.37-.1.45-.12.06-.26.03-.36-.06l-.46-.41-.9-.81-.74-.65c-.13-.12-.33-.06-.44.06l-.55.61-.66.72-1.99,2.2-1.1,1.2-.45.5-.29.32Z"/>
    </g>
    <g>
      <g>
        <path class="st6" d="M15.95,6.86c-.43.19-.93.13-1.3-.17-.31-.26-.47-.66-.45-1.07,0-.16.04-.3.09-.45l.16-.47c.11-.31.17-.62.2-.95v-.3s.03-.09.07-.1c.04-.01.1,0,.12.04.14.22.31.4.49.58.16.16.33.28.51.42l.34.26c.45.41.63,1.06.37,1.61-.12.27-.34.48-.61.6Z"/>
        <path class="st6" d="M15.48,6.76c-.31.01-.6-.11-.8-.34-.22-.25-.3-.59-.25-.92.03-.18.09-.33.14-.5.15-.4.26-.79.29-1.22.25.29.51.52.81.75l.36.27c.32.28.49.69.42,1.11-.08.48-.47.84-.96.86Z"/>
      </g>
      <path class="st4" d="M15.52,6.7c-.31.01-.6-.11-.8-.34-.22-.25-.3-.59-.25-.92"/>
    </g>
    <g>
      <g>
        <path class="st6" d="M4.6,10.62c-.01.39-.27.73-.64.84-.28.08-.57.04-.81-.14-.21-.15-.35-.4-.38-.68-.02-.21.02-.41.09-.62.14-.39.22-.7.21-1.12,0-.05.05-.09.09-.1.06,0,.1.02.13.07.07.11.15.2.24.3.16.18.35.32.55.46.22.16.39.36.47.62.04.12.05.23.05.37Z"/>
        <path class="st6" d="M3.71,11.28c-.29.01-.55-.15-.66-.41-.1-.23-.08-.47,0-.7l.13-.39c.06-.18.09-.35.11-.55.1.11.18.2.29.29l.38.3c.28.2.46.48.43.83s-.31.62-.67.64Z"/>
      </g>
      <path class="st4" d="M3.76,11.21c-.2,0-.38-.07-.5-.21-.14-.16-.19-.37-.15-.57"/>
    </g>
    <g>
      <g>
        <path class="st6" d="M9.1,18.5c-.32.18-.72.08-.93-.21-.11-.16-.14-.35-.12-.54.01-.13.05-.25.1-.37.08-.23.13-.46.12-.71,0-.07.01-.12.08-.14.06-.02.1.02.14.07.25.38.57.5.74.69.14.16.23.35.24.56,0,.27-.12.51-.36.64Z"/>
        <path class="st6" d="M9.06,18.27c-.18.14-.45.13-.62-.02s-.21-.36-.16-.57l.08-.26c.05-.16.09-.31.11-.49.15.16.31.28.47.4.12.08.2.19.26.32.09.22.04.47-.15.62Z"/>
      </g>
      <path class="st4" d="M8.79,18.33c-.14,0-.26-.05-.35-.15-.1-.11-.13-.26-.11-.4"/>
    </g>
  </g>
</svg>