<?xml version="1.0" encoding="UTF-8"?>
<svg id="Layer_1" xmlns="http://www.w3.org/2000/svg" version="1.1" viewBox="0 0 24 24">
  <!-- Generator: Adobe Illustrator 30.6.0, SVG Export Plug-In . SVG Version: 2.1.4 Build 109)  -->
  <defs>
    <style>
      .st0 {
        fill: #f0742a;
      }

      .st1 {
        fill: #ec7308;
      }

      .st2 {
        fill: #e9ecf3;
      }

      .st3 {
        fill: none;
      }

      .st4 {
        fill: #fefefc;
      }

      .st5 {
        fill: #fefdfb;
      }

      .st6 {
        fill: #fefefa;
      }

      .st7 {
        fill: #fdfdfa;
      }
    </style>
  </defs>
  <g>
    <path class="st2" d="M11.3,12.61c0,.07,0,.15.04.23l-.02.03s.02.03.03.04.02.03.02.05c.15.61.17,1.22.06,1.84-.21.87-.24,1.85.06,2.7,0,0,.02.03.03.03.49.21.85.65.92,1.19l-.02.06h.03s.02.18.02.18h2.46s.03.01.03.01c.04-.01.04,0,0,.03h-2.35s-.55,0-.55,0h-1.15c0-.05.11-.06.13-.02h1.08c.02-.2-.03-.38-.11-.56-.13-.28-.36-.48-.65-.59-.1-.04-.16-.11-.19-.22-.28-.99-.31-1.8-.08-2.81.17-.75.07-1.49-.15-2.21.04-.03.01.05.09.09.02.01.06,0,.09,0l.12-.05s.05-.04.07-.02Z"/>
    <g>
      <path class="st0" d="M10.93,12.6l.07.12c.24.77.27,1.57.06,2.35-.18.86-.1,1.72.14,2.56.02.06.06.11.11.14.42.16.74.49.82.94.01.07.04.23,0,.28-.37,0-.73,0-1.09,0-.03-.02-.05-.06-.05-.13-.02-.06-.01-.1.02-.13v-.03s.81,0,.81,0c-.07-.26-.24-.47-.49-.59-.21-.07-.37-.22-.43-.43-.23-.87-.33-1.74-.15-2.63.2-.74.18-1.49-.04-2.22l-.21-.73c-.05-.37.16-.64.51-.73.26-.04.51-.08.77-.16.41-.13.68-.43.78-.85.02-.08.01-.14-.04-.19-.41-.24-.68-.56-.85-1-.08-.15-.19-.28-.32-.38-.1-.05-.18-.13-.23-.22-.04-.22-.08-.44-.11-.66l-.41.44s-.04.01-.07,0l-.34-.73-.32.82c-.07.16-.2.28-.37.37-.47.38-.74,1.01-.61,1.6l.16.66c.15.78-.21,1.54-.8,2.04-.52.42-1.03.85-1.54,1.29-.46.45-.91,1-1.07,1.64-.11.46-.07.92.07,1.37.12,1.04-1.75,1.19-1.54.01.15-.72.33-1.43.53-2.14.32-1.08-.61-1.77-1.61-1.34-.26.11-.14.48.13.42.53-.27,1.19-.08,1.12.6l-.11.45c-.19.65-.36,1.31-.48,1.98-.07.37.06.8.36,1.04.54.44,1.39.2,1.98-.03.07-.02.14-.02.21,0,.37.14.75.26,1.15.29l1.12.02.02.03s.05.04.04.1c.02.06.01.1-.02.12-.01,0-.03.01-.06.01h-1.04s-.17-.02-.17-.02c-.38-.05-.74-.15-1.09-.28-.05-.02-.09-.02-.14,0-.49.2-1.07.34-1.59.24-.4-.08-.75-.33-.93-.7-.14-.29-.18-.62-.11-.93l.17-.8.28-1.04.13-.53c.03-.19-.07-.34-.26-.38-.14-.03-.27,0-.4.06-.22.1-.47.06-.63-.13-.12-.15-.14-.39-.04-.56.07-.11.18-.18.3-.23.61-.27,1.4-.14,1.79.44.26.39.26.84.14,1.29l-.23.84-.27,1.15c-.06.25-.03.5.21.56.2.05.43.02.59-.11.18-.14.2-.26.15-.47-.19-.74-.15-1.4.23-2.07.19-.33.41-.63.67-.9s.53-.5.82-.74l.95-.79c.26-.22.46-.48.59-.8.12-.29.15-.6.11-.91l-.12-.54c-.06-.26-.1-.52-.06-.79.04-.23.12-.45.23-.66.17-.31.41-.56.71-.74.03-.02.05-.07.06-.11.12-.32.23-.63.38-.93.04-.09.14-.13.22-.13s.16.05.2.14l.22.5.21-.22c.05-.06.12-.11.2-.11.12,0,.21.09.23.21l.12.71c.21.13.39.28.5.5l.2.4c.08.16.2.29.34.39l.24.17c.13.09.21.25.18.42-.07.43-.34.81-.73,1.01-.23.12-.47.18-.72.22l-.37.07c-.13.04-.24.14-.25.27-.01.09,0,.17.03.26l.13.41Z"/>
      <path class="st7" d="M8.81,18.74s.03,0,.03.01c0,.02,0,.19,0,.2,0,.01-.02.02-.03.02-.08,0-.17.02-.24,0l-.02-.23-.03-.03c-.05-.29-.23-.45-.49-.56-.29-.05-.35-.21-.22-.47.29-.42.58-.84.86-1.27.32-.64-.13-1.16-.63-1.54-.09-.11-.02-.27.13-.25.18.02.59.52.68.67.34.55.29,1.05-.1,1.56l-.67.99c.21.06.39.18.53.35.09.1.23.36.23.49,0,.02-.01.03-.02.05Z"/>
      <path class="st5" d="M11.04,18.97s-.09.01-.13.02h-2s.01-.04.01-.04h1.83s0-.11-.02-.18l.02-.03-.03-.04c-.09-.34-.37-.51-.68-.61-.08-.03-.1-.07-.13-.15-.04-.1-.06-.2-.09-.3-.12-.51-.18-1.05-.22-1.57-.02-.23.23-.27.29-.07.05.48.12.96.2,1.44.02.07.09.37.11.38.08.01.39.18.45.23.21.17.31.39.38.64l-.02.03.03.25Z"/>
      <path class="st0" d="M10.79,18.99h-1.88s-.09-.02-.09-.02v-.23s.01-.04.01-.04h1.91v.04c.03.07.05.17.05.25Z"/>
      <path class="st0" d="M11,18.72l-.08-.25c-.1-.23-.26-.41-.49-.51l-.27-.12c-.09-.29-.16-.58-.19-.88l-.11-.93c0-.08-.07-.13-.14-.12-.08.01-.1.08-.09.16.04.42.08.82.16,1.24.05.24.09.46.18.69.05.14.65.11.79.75h-1.74s-.2,0-.2,0c-.06-.43-.36-.76-.79-.88l.43-.63c.17-.24.33-.47.47-.72.15-.31.16-.65.02-.97-.12-.26-.28-.48-.49-.67-.08-.07-.16-.15-.25-.2-.06-.03-.14-.02-.17.04-.02.04-.02.12.03.15.26.19.49.43.64.72s.13.63-.05.91l-.43.63-.38.55c-.04.06-.06.12-.07.18-.02.13.05.21.17.24.32.07.58.32.61.64l-1.14-.02c-.4-.03-.78-.15-1.15-.29-.09-.03-.18-.02-.27.02-.38.15-.77.25-1.18.25-.33,0-.65-.12-.87-.36-.24-.27-.3-.67-.24-1.02.12-.65.28-1.28.47-1.92l.1-.43c.08-.33-.15-.64-.49-.69-.18-.03-.36,0-.52.09-.14.07-.29.02-.35-.12s0-.27.15-.34c.29-.13.63-.17.94-.08.5.14.81.59.77,1.11-.01.18-.06.35-.11.53l-.21.77-.24,1.01c-.03.14-.05.28-.04.43.01.24.17.45.41.51.31.08.63,0,.87-.2.2-.17.26-.41.18-.66-.12-.4-.15-.82-.06-1.23.14-.66.64-1.28,1.12-1.74l.7-.59.79-.66c.21-.17.38-.37.53-.6.28-.44.38-.95.28-1.46l-.14-.6c-.07-.29-.05-.57.05-.84.13-.37.36-.69.69-.9.12-.07.19-.16.25-.29l.34-.88.38.81.47-.5.11.66c.01.09.07.16.14.21.62.39.38.83,1.04,1.29l.2.14c.06.04.1.11.09.2-.07.45-.4.79-.83.92-.23.07-.44.11-.68.14-.41.06-.65.42-.55.76l.15.53c.23.77.31,1.36.13,2.16-.22.98-.18,1.88.1,2.84.05.17.17.31.33.38.3.12.52.35.59.68h-.85Z"/>
    </g>
    <g>
      <path class="st0" d="M18.98,18.84s-.05-.09,0-.1v-.03s.97-.01.97-.01c-.06-.45-.4-.73-.81-.88-.07-.04-.16-.1-.19-.18-.15-.33-.25-.74-.33-1.1-.17-.75-.28-1.5-.26-2.27.04-.64.06-1.3.07-1.97-.02-.72-.07-1.43-.15-2.12,0-.38.09-.64.4-.88.57-.31,1.15-.6,1.73-.88.5-.3.71-.64.67-1.23-.01-.16-.1-.29-.27-.31-.63-.04-1.39-.14-1.73-.73-1.2-1.46-3.54-1-3.92.93-.11.53-.02.87.22,1.31.02.06.05.17.02.23-.02.04-.03.04-.06.02h-.05c-.09-.06-.28-.31-.31-.41,0-.02,0-.04.01-.05-.05-.14-.12-.28-.13-.43-.08-.71.15-1.43.63-1.95.27-.29.58-.5.95-.63.54-.2,1.11-.2,1.66-.03.44.14.83.38,1.12.74l.16.2c.04.05.08.12.13.17.32.26.91.32,1.32.36.27.03.48.22.52.49.1.6-.19,1.26-.74,1.54l-.61.3-1.03.52c-.3.15-.44.43-.41.76l.08.89c.07.8.07,1.59.03,2.39l-.03.56c-.03.55,0,1.08.09,1.62.1.61.24,1.2.44,1.79.02.06.05.1.11.12l.31.14c.43.2.7.78.68,1.26h-1.26c0-.05.01-.1-.01-.14Z"/>
      <path class="st6" d="M14.46,17.71s.03-.01.04-.01.21.11.21.12c0,.01,0,.02,0,.04l.19.2c.2.26.31.58.31.92h-.27s0-.01,0-.02c-.04-.04-.07-.17-.03-.22l-.04-.05c-.09-.41-.4-.69-.79-.79-.14-.06-.18-.17-.14-.31l.78-1.71c.29-.74-.1-1.44-.73-1.84-.12-.13.03-.35.19-.27.37.19.74.64.88,1.03.15.42.14.88-.05,1.29l-.71,1.53.15.06v.04Z"/>
      <path class="st0" d="M18.69,18.72s.03,0,.03,0c0,.02.04.19.03.21l-.03.03s-.02.01-.05.01h-2.23s-.44-1.92-.44-1.92l-.47.36c-.27.17-.54.32-.83.45l-.25-.15s0-.04.02-.05c.61-.25,1.17-.6,1.63-1.08.03-.04.05-.03.08,0,.15.71.3,1.42.47,2.12h2s.02.03.02.03Z"/>
      <path class="st0" d="M14.96,8.64l.02.05c-.16.59-.33,1.17-.65,1.71s-.84.97-1.34,1.37l-1.6,1.12s-.06.03-.08-.02l-.06-.21s.03-.04.04-.05l.72-.49.86-.62c.28-.2.52-.43.76-.68.21-.21.39-.44.53-.7.3-.58.46-1.11.58-1.75,0-.02,0-.04.02-.05.05.04.08.09.11.16.05.06.08.11.09.17Z"/>
      <path class="st4" d="M14.96,8.64c-.09-.1-.15-.21-.2-.33-.02-.06,0-.15.05-.19s.12.02.16.05c.07.18.2.34.35.46h.05c.48.44,1.54.37,1.44-.45-.16-.57-.33-1.15-.51-1.72-.01-.2.21-.25.29-.08l.47,1.52c.37,1.02-.64,1.59-1.53,1.21-.13-.06-.56-.31-.58-.44,0-.01,0-.02,0-.03Z"/>
      <path class="st4" d="M18.98,18.74v.1s0,.13,0,.13h-.26s-.04-.25-.04-.25l-.04-.04c-.06-.28-.24-.52-.49-.66-.15-.06-.29-.13-.43-.21-.04-.05-.09-.3-.11-.38l-.24-1.88c-.06-.28.23-.38.33-.13.06.72.15,1.44.29,2.14l.05.04c.24.1.47.22.64.43.12.15.28.45.3.65,0,.02,0,.04-.02.06Z"/>
      <path class="st0" d="M18.98,18.74c-.21-1.04-.99-1.05-1.01-1.17-.14-.7-.23-1.4-.29-2.11,0-.08-.04-.12-.11-.14-.05-.02-.14,0-.15.07-.02.1,0,.2,0,.3l.23,1.74.07.32c.03.12.35.14.62.37.18.16.3.37.34.6h-2.05s-.19-.84-.19-.84l-.28-1.31c-.23.22-.44.42-.69.59-.28.2-.59.35-.9.49-.04.02-.08.03-.11.06l-.2-.08.23-.48.49-1.05c.29-.62.18-1.31-.26-1.83-.15-.18-.33-.33-.52-.46-.07-.05-.16-.03-.2.03-.04.08-.02.15.05.2.17.12.32.24.45.4.36.41.45.96.24,1.47l-.38.82-.4.87c-.06.12.02.24.14.28.44.14.71.41.8.86l-.03.02h-2.42s-.05.01-.05.01c-.04-.35-.2-.69-.47-.93-.13-.12-.27-.2-.42-.27-.04-.02-.07-.05-.08-.09-.24-.86-.28-1.61-.08-2.49.16-.71.15-1.43-.04-2.12.02.02.05,0,.07-.01l.4-.28.99-.69c.38-.26.72-.56,1.04-.88.24-.25.43-.51.59-.82.22-.42.37-.86.48-1.32l.07-.22c.23.27.55.47.91.54.34.06.69,0,.95-.22.23-.18.33-.44.3-.73-.01-.13-.05-.25-.09-.37l-.34-1.09-.11-.36c-.02-.08-.08-.12-.16-.09-.07.02-.1.1-.07.18l.38,1.23.12.46c.06.29-.08.56-.36.68-.41.18-.84.06-1.17-.22.06,0,.05-.15,0-.24l-.15-.32c-.09-.19-.13-.38-.12-.59.01-.33.09-.65.22-.95.45-1.02,1.58-1.48,2.65-1.18.3.09.58.22.82.42.15.13.28.26.39.42.09.13.19.25.33.32.39.22.86.3,1.31.32.17,0,.29.13.32.29.05.38-.06.79-.33,1.06-.14.13-.29.23-.46.31l-.62.3-.94.48c-.32.19-.48.57-.44.93l.08.82c.07.75.09,1.5.05,2.26l-.05.98c-.02.75.08,1.48.24,2.21.09.38.18.73.32,1.09.04.11.12.18.23.23.17.07.34.14.48.27.19.17.3.4.34.66h-1.01Z"/>
      <path class="st0" d="M14.92,18.74c.02.07.03.15.03.22-.01.02-.02.02-.05.02h-2.46s-.02-.21-.02-.21c0-.01,0-.03.01-.03s.02,0,.04,0h2.37s.06,0,.08,0Z"/>
    </g>
  </g>
  <g>
    <path class="st1" d="M16.92,24H7.08c-3.9,0-7.08-3.17-7.08-7.08V7.08C0,3.18,3.17,0,7.08,0h9.84c3.9,0,7.08,3.18,7.08,7.08v9.84c0,3.9-3.18,7.08-7.08,7.08M7.08.93C3.69.93.93,3.69.93,7.08v9.84c0,3.39,2.76,6.15,6.15,6.15h9.84c3.39,0,6.15-2.76,6.15-6.15V7.08c0-3.39-2.76-6.15-6.15-6.15H7.08"/>
    <rect class="st3" x="3.79" y="2.82" width="15.54" height="14.16"/>
  </g>
</svg>